<svg width="24" height="24" viewBox="0 0 24 24" fill="none" xmlns="http://www.w3.org/2000/svg">
<path d="M18.6195 3.31869C19.008 3.31869 19.3291 3.60738 19.3799 3.98192L19.3869 4.08604V6.9799C19.3869 7.36838 19.0982 7.68944 18.7237 7.74025L18.6195 7.74725H15.7257C15.3019 7.74725 14.9583 7.4037 14.9583 6.9799C14.9583 6.59142 15.247 6.27037 15.6215 6.21956L15.7257 6.21255L16.7044 6.2121C13.7917 3.87135 9.52213 4.05236 6.81934 6.75515C3.92254 9.65195 3.92254 14.3486 6.81934 17.2454C9.71614 20.1422 14.4128 20.1422 17.3096 17.2454C19.0725 15.4824 19.8107 12.9929 19.3476 10.5895C19.2674 10.1734 19.5398 9.77103 19.9559 9.69086C20.3721 9.61068 20.7744 9.88304 20.8546 10.2992C21.413 13.1975 20.5217 16.2037 18.3948 18.3306C14.8986 21.8267 9.23028 21.8267 5.73414 18.3306C2.238 14.8345 2.238 9.16609 5.73414 5.66995C9.05475 2.34934 14.3349 2.18263 17.8523 5.16981L17.8522 4.08604C17.8522 3.66225 18.1957 3.31869 18.6195 3.31869Z" fill="#0E1271"/>
</svg>
