<svg width="304" height="57" viewBox="0 0 304 57" fill="none" xmlns="http://www.w3.org/2000/svg">
<mask id="mask0" mask-type="alpha" maskUnits="userSpaceOnUse" x="0" y="0" width="304" height="57">
<path d="M214.153 0H230.489V16.5927C230.573 16.5139 230.658 16.4359 230.744 16.3587C233.807 13.8027 239.422 11.7579 244.783 12.0134C249.122 12.269 253.716 13.0359 260.098 16.6143L255.248 27.861C249.888 24.7937 243.251 22.2377 242.741 25.5605C242.595 27.1683 244.285 27.606 246.809 28.2596C248.699 28.7489 251.057 29.3594 253.461 30.6726C264.437 35.7847 263.16 57 241.975 57C234.828 57 229.468 54.9552 223.342 51.3767L228.192 40.13C228.192 40.13 237.125 46.009 241.72 44.4753C243.506 43.9641 243.762 41.6637 241.975 40.8969C241.287 40.5837 240.292 40.3473 239.13 40.0711C235.55 39.2198 230.379 37.9904 227.681 32.9731C224.677 27.7094 225.846 20.9711 230.466 16.6143H214.153V55.4664H196.796V29.139H186.586V13.2915H214.153V0Z" fill="black"/>
<path d="M26.801 13.2914L17.6121 33.7398V13.2914H0V55.4663H17.6121V33.9954L27.3115 55.4663H47.2208L36.7557 33.9954L46.7103 13.2914H26.801Z" fill="black"/>
<path d="M286.643 39.6188V13.2914H304V39.6188C304 51.3766 296.087 56.9999 284.346 56.9999C272.349 56.9999 264.692 51.121 264.692 39.6188V13.2914H282.049V39.6188C282.049 40.8968 283.07 41.9192 284.346 41.9192C285.622 41.9192 286.643 40.8968 286.643 39.6188Z" fill="black"/>
<path fill-rule="evenodd" clip-rule="evenodd" d="M67.3857 11.7578C54.8785 11.7578 44.9238 21.982 44.9238 34.5067C44.9238 47.0314 55.1338 57 67.3857 57C79.6375 57 90.1027 46.7758 90.1027 34.5067C89.8475 21.982 79.8928 11.7578 67.3857 11.7578ZM67.3857 40.8968C63.8122 40.8968 61.0045 38.0852 61.0045 34.5067C61.0045 30.9282 63.8122 28.1166 67.3857 28.1166C70.9591 28.1166 73.7668 30.9282 73.7668 34.5067C73.7668 37.8296 70.9591 40.8968 67.3857 40.8968Z" fill="black"/>
<path d="M145.746 52.9102L159.53 13.2914H176.887L191.436 55.4663H173.313L168.208 35.529L163.103 55.4663H130.432L128.134 39.3631L123.795 55.4663H113.585L109.246 39.3631L106.949 55.4663H91.1233L97.5045 13.2914H113.33L118.69 30.1613L124.05 13.2914H139.876L145.746 52.9102Z" fill="black"/>
</mask>
<g mask="url(#mask0)">
<rect width="304" height="57" fill="#0E1271"/>
</g>
</svg>
